<svg width="56" height="56" viewBox="0 0 56 56" fill="none" xmlns="http://www.w3.org/2000/svg">
<path d="M14.0001 18.2C14.0001 17.8287 14.1476 17.4726 14.4101 17.21C14.6727 16.9475 15.0288 16.8 15.4001 16.8H35.0001C35.3714 16.8 35.7275 16.9475 35.99 17.21C36.2526 17.4726 36.4001 17.8287 36.4001 18.2C36.4001 18.5713 36.2526 18.9274 35.99 19.1899C35.7275 19.4525 35.3714 19.6 35.0001 19.6H15.4001C15.0288 19.6 14.6727 19.4525 14.4101 19.1899C14.1476 18.9274 14.0001 18.5713 14.0001 18.2ZM29.4001 25.2C29.0288 25.2 28.6727 25.3475 28.4101 25.61C28.1476 25.8726 28.0001 26.2287 28.0001 26.6C28.0001 26.9713 28.1476 27.3274 28.4101 27.5899C28.6727 27.8525 29.0288 28 29.4001 28H35.0001C35.3714 28 35.7275 27.8525 35.99 27.5899C36.2526 27.3274 36.4001 26.9713 36.4001 26.6C36.4001 26.2287 36.2526 25.8726 35.99 25.61C35.7275 25.3475 35.3714 25.2 35.0001 25.2H29.4001ZM28.0001 35C28.0001 34.6287 28.1476 34.2726 28.4101 34.01C28.6727 33.7475 29.0288 33.6 29.4001 33.6H35.0001C35.3714 33.6 35.7275 33.7475 35.99 34.01C36.2526 34.2726 36.4001 34.6287 36.4001 35C36.4001 35.3713 36.2526 35.7274 35.99 35.9899C35.7275 36.2525 35.3714 36.4 35.0001 36.4H29.4001C29.0288 36.4 28.6727 36.2525 28.4101 35.9899C28.1476 35.7274 28.0001 35.3713 28.0001 35ZM15.4001 25.2C15.0288 25.2 14.6727 25.3475 14.4101 25.61C14.1476 25.8726 14.0001 26.2287 14.0001 26.6V35C14.0001 35.3713 14.1476 35.7274 14.4101 35.9899C14.6727 36.2525 15.0288 36.4 15.4001 36.4H23.8001C24.1714 36.4 24.5275 36.2525 24.79 35.9899C25.0526 35.7274 25.2001 35.3713 25.2001 35V26.6C25.2001 26.2287 25.0526 25.8726 24.79 25.61C24.5275 25.3475 24.1714 25.2 23.8001 25.2H15.4001ZM16.8001 33.6V28H22.4001V33.6H16.8001ZM5.6001 14C5.6001 12.5148 6.1901 11.0904 7.2403 10.0402C8.2905 8.98999 9.71489 8.39999 11.2001 8.39999H39.2001C40.6853 8.39999 42.1097 8.98999 43.1599 10.0402C44.2101 11.0904 44.8001 12.5148 44.8001 14V16.8C46.2853 16.8 47.7097 17.39 48.7599 18.4402C49.8101 19.4904 50.4001 20.9148 50.4001 22.4V37.8C50.4001 39.6565 49.6626 41.437 48.3498 42.7497C47.0371 44.0625 45.2566 44.8 43.4001 44.8H12.6001C10.7436 44.8 8.9631 44.0625 7.65035 42.7497C6.3376 41.437 5.6001 39.6565 5.6001 37.8V14ZM42.0001 14C42.0001 13.2574 41.7051 12.5452 41.18 12.0201C40.6549 11.495 39.9427 11.2 39.2001 11.2H11.2001C10.4575 11.2 9.7453 11.495 9.2202 12.0201C8.6951 12.5452 8.4001 13.2574 8.4001 14V37.8C8.4001 38.9139 8.8426 39.9822 9.63025 40.7698C10.4179 41.5575 11.4862 42 12.6001 42H43.4001C44.514 42 45.5823 41.5575 46.3699 40.7698C47.1576 39.9822 47.6001 38.9139 47.6001 37.8V22.4C47.6001 21.6574 47.3051 20.9452 46.78 20.4201C46.2549 19.895 45.5427 19.6 44.8001 19.6V37.8C44.8001 38.1713 44.6526 38.5274 44.39 38.7899C44.1275 39.0525 43.7714 39.2 43.4001 39.2C43.0288 39.2 42.6727 39.0525 42.4101 38.7899C42.1476 38.5274 42.0001 38.1713 42.0001 37.8V14Z" fill="#0066FF"/>
</svg>
