<svg width="26" height="26" viewBox="0 0 26 26" fill="none" xmlns="http://www.w3.org/2000/svg">
<path d="M22.8968 15.8156C23.8378 14.3398 24.3363 12.6253 24.3333 10.875C24.3333 5.78917 20.2108 1.66667 15.1249 1.66667C13.3066 1.66667 11.6116 2.19367 10.1843 3.10246C9.23442 3.15574 8.29425 3.32171 7.38354 3.59688C8.07579 2.86095 8.86901 2.22705 9.73946 1.71413C11.3608 0.758767 13.2077 0.253339 15.0895 0.25H15.1249C20.9928 0.25 25.7499 5.00717 25.7499 10.875C25.7499 10.9706 25.7485 11.0655 25.7464 11.1605L25.745 11.1945C25.6943 12.9793 25.1923 14.7222 24.2858 16.2605C23.7729 17.1309 23.139 17.9242 22.403 18.6164C22.6729 17.7218 22.8422 16.7839 22.8968 15.8156Z" fill="white"/>
<path fill-rule="evenodd" clip-rule="evenodd" d="M14.2551 12.0558C14.0597 11.5033 13.6978 11.025 13.2194 10.6867C12.7409 10.3483 12.1693 10.1667 11.5833 10.1667V9.45833H10.1666V10.1667C9.41514 10.1667 8.69447 10.4652 8.16312 10.9965C7.63176 11.5279 7.33325 12.2485 7.33325 13C7.33325 13.7514 7.63176 14.4721 8.16312 15.0035C8.69447 15.5348 9.41514 15.8333 10.1666 15.8333V18.6667C9.55034 18.6667 9.02546 18.2735 8.82996 17.7225C8.80096 17.6323 8.75416 17.5489 8.69235 17.4771C8.63054 17.4053 8.55497 17.3467 8.4701 17.3047C8.38523 17.2626 8.29279 17.238 8.19825 17.2323C8.10371 17.2266 8.00899 17.24 7.91969 17.2715C7.83039 17.3031 7.74832 17.3522 7.67835 17.416C7.60837 17.4798 7.5519 17.5571 7.51228 17.6431C7.47266 17.7291 7.4507 17.8222 7.44769 17.9169C7.44468 18.0115 7.46068 18.1058 7.49475 18.1942C7.69014 18.7467 8.05199 19.225 8.53048 19.5633C9.00897 19.9017 9.58057 20.0833 10.1666 20.0833V20.7917H11.5833V20.0833C12.3347 20.0833 13.0554 19.7848 13.5867 19.2535C14.1181 18.7221 14.4166 18.0014 14.4166 17.25C14.4166 16.4985 14.1181 15.7779 13.5867 15.2465C13.0554 14.7152 12.3347 14.4167 11.5833 14.4167V11.5833C12.1995 11.5833 12.7244 11.9765 12.9199 12.5275C12.9489 12.6177 12.9957 12.7011 13.0575 12.7729C13.1193 12.8446 13.1949 12.9033 13.2797 12.9453C13.3646 12.9874 13.457 13.012 13.5516 13.0177C13.6461 13.0234 13.7408 13.01 13.8301 12.9785C13.9194 12.9469 14.0015 12.8978 14.0715 12.834C14.1415 12.7701 14.1979 12.6929 14.2376 12.6069C14.2772 12.5209 14.2991 12.4278 14.3022 12.3331C14.3052 12.2385 14.2892 12.1442 14.2551 12.0558ZM10.1666 11.5833C9.79086 11.5833 9.43053 11.7326 9.16485 11.9983C8.89917 12.2639 8.74992 12.6243 8.74992 13C8.74992 13.3757 8.89917 13.7361 9.16485 14.0017C9.43053 14.2674 9.79086 14.4167 10.1666 14.4167V11.5833ZM11.5833 18.6667C11.959 18.6667 12.3193 18.5174 12.585 18.2517C12.8507 17.9861 12.9999 17.6257 12.9999 17.25C12.9999 16.8743 12.8507 16.5139 12.585 16.2483C12.3193 15.9826 11.959 15.8333 11.5833 15.8333V18.6667Z" fill="white"/>
<path fill-rule="evenodd" clip-rule="evenodd" d="M21.5 15.125C21.5 20.9928 16.7428 25.75 10.875 25.75C5.00717 25.75 0.25 20.9928 0.25 15.125C0.25 9.25717 5.00717 4.5 10.875 4.5C16.7428 4.5 21.5 9.25717 21.5 15.125ZM20.0833 15.125C20.0833 20.2108 15.9608 24.3333 10.875 24.3333C5.78917 24.3333 1.66667 20.2108 1.66667 15.125C1.66667 10.0392 5.78917 5.91667 10.875 5.91667C15.9608 5.91667 20.0833 10.0392 20.0833 15.125Z" fill="white"/>
</svg>
