<svg width="26" height="26" viewBox="0 0 26 26" fill="none" xmlns="http://www.w3.org/2000/svg">
<path d="M22.897 15.8156C23.8381 14.3398 24.3366 12.6253 24.3335 10.875C24.3335 5.78917 20.211 1.66667 15.1252 1.66667C13.3069 1.66667 11.6118 2.19367 10.1845 3.10246C9.23467 3.15574 8.29449 3.32171 7.38379 3.59688C8.07603 2.86095 8.86925 2.22705 9.73971 1.71413C11.361 0.758767 13.2079 0.253339 15.0897 0.25H15.1252C20.993 0.25 25.7502 5.00717 25.7502 10.875C25.7502 10.9706 25.7487 11.0655 25.7466 11.1605L25.7452 11.1945C25.6945 12.9793 25.1925 14.7222 24.286 16.2605C23.7731 17.1309 23.1392 17.9242 22.4033 18.6164C22.6732 17.7218 22.8425 16.7839 22.897 15.8156Z" fill="white"/>
<path fill-rule="evenodd" clip-rule="evenodd" d="M14.2553 12.0557C14.0599 11.5032 13.6981 11.0249 13.2196 10.6866C12.7411 10.3483 12.1695 10.1666 11.5835 10.1666V9.45825H10.1668V10.1666C9.41538 10.1666 8.69471 10.4651 8.16336 10.9964C7.63201 11.5278 7.3335 12.2485 7.3335 12.9999C7.3335 13.7514 7.63201 14.472 8.16336 15.0034C8.69471 15.5347 9.41538 15.8333 10.1668 15.8333V18.6666C9.55058 18.6666 9.02571 18.2735 8.83021 17.7224C8.8012 17.6322 8.75441 17.5488 8.6926 17.477C8.63079 17.4053 8.55521 17.3466 8.47034 17.3046C8.38548 17.2625 8.29304 17.2379 8.1985 17.2323C8.10396 17.2266 8.00924 17.2399 7.91994 17.2714C7.83064 17.303 7.74857 17.3521 7.67859 17.4159C7.60861 17.4798 7.55214 17.557 7.51252 17.643C7.47291 17.729 7.45094 17.8221 7.44793 17.9168C7.44492 18.0115 7.46092 18.1058 7.495 18.1941C7.69038 18.7466 8.05223 19.2249 8.53072 19.5633C9.00921 19.9016 9.58082 20.0832 10.1668 20.0833V20.7916H11.5835V20.0833C12.3349 20.0833 13.0556 19.7847 13.587 19.2534C14.1183 18.722 14.4168 18.0014 14.4168 17.2499C14.4168 16.4985 14.1183 15.7778 13.587 15.2464C13.0556 14.7151 12.3349 14.4166 11.5835 14.4166V11.5833C12.1997 11.5833 12.7246 11.9764 12.9201 12.5275C12.9491 12.6176 12.9959 12.701 13.0577 12.7728C13.1195 12.8446 13.1951 12.9032 13.28 12.9452C13.3649 12.9873 13.4573 13.0119 13.5518 13.0176C13.6464 13.0233 13.7411 13.01 13.8304 12.9784C13.9197 12.9469 14.0018 12.8977 14.0717 12.8339C14.1417 12.7701 14.1982 12.6929 14.2378 12.6068C14.2774 12.5208 14.2994 12.4277 14.3024 12.333C14.3054 12.2384 14.2894 12.1441 14.2553 12.0557ZM10.1668 11.5833C9.79111 11.5833 9.43077 11.7325 9.1651 11.9982C8.89942 12.2639 8.75016 12.6242 8.75016 12.9999C8.75016 13.3756 8.89942 13.736 9.1651 14.0017C9.43077 14.2673 9.79111 14.4166 10.1668 14.4166V11.5833ZM11.5835 18.6666C11.9592 18.6666 12.3196 18.5173 12.5852 18.2517C12.8509 17.986 13.0002 17.6256 13.0002 17.2499C13.0002 16.8742 12.8509 16.5139 12.5852 16.2482C12.3196 15.9825 11.9592 15.8333 11.5835 15.8333V18.6666Z" fill="white"/>
<path fill-rule="evenodd" clip-rule="evenodd" d="M21.5 15.125C21.5 20.9928 16.7428 25.75 10.875 25.75C5.00717 25.75 0.25 20.9928 0.25 15.125C0.25 9.25717 5.00717 4.5 10.875 4.5C16.7428 4.5 21.5 9.25717 21.5 15.125ZM20.0833 15.125C20.0833 20.2108 15.9608 24.3333 10.875 24.3333C5.78917 24.3333 1.66667 20.2108 1.66667 15.125C1.66667 10.0392 5.78917 5.91667 10.875 5.91667C15.9608 5.91667 20.0833 10.0392 20.0833 15.125Z" fill="white"/>
</svg>
