<svg width="25" height="24" viewBox="0 0 25 24" fill="none" xmlns="http://www.w3.org/2000/svg">
<path d="M24.1887 21.4186C23.4119 20.7261 22.7318 19.9322 22.1668 19.0583C21.5499 17.852 21.1801 16.5347 21.0793 15.1836V11.2042C21.0846 9.08201 20.3148 7.03096 18.9145 5.43636C17.5142 3.84176 15.5798 2.81338 13.4748 2.54444V1.50527C13.4748 1.22005 13.3615 0.946517 13.1598 0.744838C12.9581 0.543158 12.6846 0.429855 12.3994 0.429855C12.1142 0.429855 11.8406 0.543158 11.639 0.744838C11.4373 0.946517 11.324 1.22005 11.324 1.50527V2.56055C9.23779 2.84888 7.32679 3.88348 5.9449 5.47272C4.56302 7.06196 3.8039 9.09815 3.80814 11.2042V15.1836C3.70725 16.5347 3.33752 17.852 2.72064 19.0583C2.16552 19.9302 1.49635 20.724 0.73092 21.4186C0.644993 21.4941 0.576126 21.587 0.528901 21.6912C0.481676 21.7954 0.457176 21.9084 0.457031 22.0228V23.1183C0.457031 23.332 0.541902 23.5369 0.692973 23.6879C0.844044 23.839 1.04894 23.9239 1.26259 23.9239H23.657C23.8707 23.9239 24.0756 23.839 24.2266 23.6879C24.3777 23.5369 24.4626 23.332 24.4626 23.1183V22.0228C24.4624 21.9084 24.4379 21.7954 24.3907 21.6912C24.3435 21.587 24.2746 21.4941 24.1887 21.4186ZM2.13259 22.3128C2.88208 21.5887 3.54199 20.7774 4.09814 19.8961C4.87519 18.4392 5.32857 16.8318 5.42731 15.1836V11.2042C5.39536 10.2601 5.55372 9.31922 5.89296 8.43761C6.23219 7.55601 6.74537 6.75168 7.40192 6.07253C8.05848 5.39338 8.84499 4.8533 9.71462 4.48444C10.5843 4.11558 11.5192 3.92549 12.4638 3.92549C13.4085 3.92549 14.3434 4.11558 15.2131 4.48444C16.0827 4.8533 16.8692 5.39338 17.5257 6.07253C18.1823 6.75168 18.6955 7.55601 19.0347 8.43761C19.374 9.31922 19.5323 10.2601 19.5004 11.2042V15.1836C19.5991 16.8318 20.0525 18.4392 20.8295 19.8961C21.3857 20.7774 22.0456 21.5887 22.7951 22.3128H2.13259Z" fill="white"/>
</svg>
