<svg width="50" height="50" viewBox="0 0 50 50" fill="none" xmlns="http://www.w3.org/2000/svg">
<path fill-rule="evenodd" clip-rule="evenodd" d="M4.6875 43.75H46.875V40.625H6.25V0H3.125V42.1875L4.6875 43.75ZM9.375 35.9375V10.9375L10.9375 9.375H17.1875L18.75 10.9375V35.9375L17.1875 37.5H10.9375L9.375 35.9375ZM15.625 34.375V12.5H12.5V34.375H15.625ZM34.375 4.6875V35.9375L35.9375 37.5H42.1875L43.75 35.9375V4.6875L42.1875 3.125H35.9375L34.375 4.6875ZM40.625 6.25V34.375H37.5V6.25H40.625ZM21.875 35.9375V17.1875L23.4375 15.625H29.6875L31.25 17.1875V35.9375L29.6875 37.5H23.4375L21.875 35.9375ZM28.125 34.375V18.75H25V34.375H28.125Z" fill="#3DBD00"/>
</svg>
