<svg width="32" height="32" viewBox="0 0 32 32" fill="none" xmlns="http://www.w3.org/2000/svg">
<path fill-rule="evenodd" clip-rule="evenodd" d="M21.6668 11.75C21.6668 13.2529 21.0698 14.6943 20.0071 15.757C18.9444 16.8197 17.5031 17.4167 16.0002 17.4167C14.4973 17.4167 13.0559 16.8197 11.9932 15.757C10.9305 14.6943 10.3335 13.2529 10.3335 11.75C10.3335 10.2471 10.9305 8.80581 11.9932 7.7431C13.0559 6.6804 14.4973 6.08337 16.0002 6.08337C17.5031 6.08337 18.9444 6.6804 20.0071 7.7431C21.0698 8.80581 21.6668 10.2471 21.6668 11.75ZM18.8335 11.75C18.8335 12.5015 18.535 13.2222 18.0036 13.7535C17.4723 14.2849 16.7516 14.5834 16.0002 14.5834C15.2487 14.5834 14.528 14.2849 13.9967 13.7535C13.4653 13.2222 13.1668 12.5015 13.1668 11.75C13.1668 10.9986 13.4653 10.2779 13.9967 9.74657C14.528 9.21522 15.2487 8.91671 16.0002 8.91671C16.7516 8.91671 17.4723 9.21522 18.0036 9.74657C18.535 10.2779 18.8335 10.9986 18.8335 11.75Z" fill="#111111"/>
<path fill-rule="evenodd" clip-rule="evenodd" d="M16.0001 0.416687C7.39383 0.416687 0.416748 7.39377 0.416748 16C0.416748 24.6063 7.39383 31.5834 16.0001 31.5834C24.6063 31.5834 31.5834 24.6063 31.5834 16C31.5834 7.39377 24.6063 0.416687 16.0001 0.416687ZM3.25008 16C3.25008 18.9609 4.26016 21.6865 5.95308 23.8512C7.14199 22.2899 8.67577 21.0246 10.4346 20.1541C12.1934 19.2837 14.1297 18.8316 16.0922 18.8334C18.0292 18.8315 19.9411 19.2718 21.6822 20.1208C23.4233 20.9697 24.9477 22.2049 26.1392 23.7322C27.3666 22.1223 28.1931 20.2432 28.5502 18.2505C28.9073 16.2578 28.7847 14.2087 28.1926 12.2727C27.6005 10.3368 26.556 8.56967 25.1454 7.11757C23.7347 5.66547 21.9986 4.57015 20.0806 3.92224C18.1626 3.27433 16.1179 3.09245 14.1157 3.39165C12.1135 3.69085 10.2113 4.46253 8.5665 5.64285C6.92172 6.82316 5.58165 8.37817 4.65716 10.1792C3.73267 11.9803 3.25034 13.9756 3.25008 16ZM16.0001 28.75C13.0732 28.7544 10.2346 27.7475 7.96475 25.8997C8.8784 24.5917 10.0945 23.5238 11.5095 22.7868C12.9246 22.0498 14.4967 21.6656 16.0922 21.6667C17.6677 21.6654 19.2209 22.0401 20.6226 22.7595C22.0243 23.479 23.2341 24.5225 24.1516 25.8034C21.8641 27.7112 18.9787 28.7542 16.0001 28.75Z" fill="#111111"/>
</svg>
