<?xml version="1.0" encoding="utf-8"?>
<!-- Generator: Adobe Illustrator 16.0.0, SVG Export Plug-In . SVG Version: 6.00 Build 0)  -->
<!DOCTYPE svg PUBLIC "-//W3C//DTD SVG 1.1//EN" "http://www.w3.org/Graphics/SVG/1.1/DTD/svg11.dtd">
<svg version="1.1" id="Layer_1" xmlns="http://www.w3.org/2000/svg" xmlns:xlink="http://www.w3.org/1999/xlink" x="0px" y="0px"
	 width="22px" height="26px" viewBox="0 0 22 26" enable-background="new 0 0 22 26" xml:space="preserve">
<path fill="#FFFFFF" d="M20.351,16.665c-1.172-2.074-2.87-3.618-5.048-4.588l-0.098-0.044c2.797-2.359,3.194-6.399,0.895-9.227
	c-1.106-1.362-2.572-2.164-4.354-2.384c-0.049-0.006-0.095-0.016-0.142-0.026L11.48,0.375L10.466,0.38
	c-0.124,0.024-0.248,0.045-0.372,0.066C9.813,0.494,9.523,0.543,9.24,0.627C6.867,1.335,5.328,2.871,4.665,5.192
	c-0.621,2.173-0.179,4.205,1.311,6.042c0.169,0.208,0.364,0.388,0.554,0.563l0.187,0.175c0.022,0.021,0.045,0.042,0.068,0.062
	c-0.216,0.099-0.425,0.194-0.628,0.3c-2.601,1.348-4.4,3.443-5.346,6.228c-0.41,1.207-0.582,2.422-0.512,3.61
	c0.102,1.708,1.42,3.141,3.127,3.404l0.063-0.239c0,0,0,0,0.001,0l0.028,0.275l14.914,0.015l0.037-0.012
	c0.106-0.033,0.215-0.063,0.324-0.094c0.249-0.068,0.506-0.14,0.752-0.252c1.398-0.64,2.229-2.03,2.169-3.629
	C21.644,19.817,21.186,18.144,20.351,16.665z M4.184,23.227c-0.546,0-0.93-0.164-1.209-0.518c-0.188-0.237-0.284-0.5-0.286-0.781
	c-0.009-1.459,0.344-2.832,1.047-4.082c0.899-1.597,2.196-2.787,3.854-3.539c1.447-0.654,2.994-0.871,4.6-0.644
	c1.403,0.199,2.689,0.737,3.82,1.602c1.568,1.198,2.592,2.753,3.043,4.622c0.109,0.452,0.158,0.935,0.205,1.402l0.045,0.428
	c0.045,0.39-0.069,0.76-0.32,1.041c-0.271,0.305-0.684,0.472-1.17,0.472l0,0c-0.974-0.006-1.947-0.008-2.921-0.008L4.184,23.227z
	 M11.006,2.528v0.249c2.305,0,4.182,1.88,4.184,4.191c0.002,1.113-0.435,2.164-1.229,2.958c-0.794,0.794-1.846,1.232-2.964,1.233
	c-2.309,0-4.19-1.878-4.194-4.186C6.8,4.667,8.68,2.784,10.995,2.777L11.006,2.528L11.006,2.528z"/>
</svg>
