<svg width="29" height="29" viewBox="0 0 29 29" fill="none" xmlns="http://www.w3.org/2000/svg">
<g clip-path="url(#clip0_1_331)">
<path d="M14.5805 8.86111C11.4389 8.86111 8.94165 11.3583 8.94165 14.5C8.94165 17.6417 11.4389 20.1389 14.5805 20.1389C17.7222 20.1389 20.2194 17.6417 20.2194 14.5C20.2194 11.3583 17.7222 8.86111 14.5805 8.86111ZM14.5805 18.5278C12.325 18.5278 10.5528 16.7556 10.5528 14.5C10.5528 12.2444 12.325 10.4722 14.5805 10.4722C16.8361 10.4722 18.6083 12.2444 18.6083 14.5C18.6083 16.7556 16.8361 18.5278 14.5805 18.5278Z" fill="white"/>
<path d="M26.4222 11.8417L24.1666 11.1167L23.6833 9.90834L24.8111 7.81389C25.0527 7.33056 24.9722 6.68611 24.5694 6.28334L22.6361 4.35C22.2333 3.94723 21.5889 3.86667 21.1055 4.10834L19.0111 5.23611L17.8027 4.75278L17.0778 2.49723C16.9166 2.01389 16.4333 1.61111 15.8694 1.61111H13.1305C12.5666 1.61111 12.0833 2.01389 12.0027 2.57778L11.2778 4.83334C10.7944 4.91389 10.3916 5.075 9.98886 5.31667L7.89442 4.18889C7.41108 3.94723 6.76664 4.02778 6.36386 4.43056L4.43053 6.36389C4.02775 6.76667 3.94719 7.41111 4.18886 7.89445L5.23608 9.90834C5.07497 10.3111 4.91386 10.7944 4.75275 11.1972L2.4972 11.9222C2.01386 12.0833 1.61108 12.5667 1.61108 13.1306V15.8694C1.61108 16.4333 2.01386 16.9167 2.57775 17.0778L4.83331 17.8028L5.31664 19.0111L4.18886 21.1056C3.94719 21.5889 4.02775 22.2333 4.43053 22.6361L6.36386 24.5694C6.76664 24.9722 7.41108 25.0528 7.89442 24.8111L9.98886 23.6833L11.1972 24.1667L11.9222 26.5028C12.0833 26.9861 12.5666 27.3889 13.1305 27.3889H15.8694C16.4333 27.3889 16.9166 26.9861 17.0778 26.5028L17.8027 24.1667L19.0111 23.6833L21.1055 24.8111C21.5889 25.0528 22.2333 24.9722 22.6361 24.5694L24.5694 22.6361C24.9722 22.2333 25.0527 21.5889 24.8111 21.1056L23.6833 19.0111L24.1666 17.8028L26.5028 17.0778C26.9861 16.9167 27.3889 16.4333 27.3889 15.8694V13.1306C27.3889 12.5667 26.9861 12.0028 26.4222 11.8417ZM25.7778 15.6278L22.8778 16.5139L22.7972 16.9167L22.0722 18.6083L21.8305 19.0111L23.2805 21.6694L21.6694 23.2806L19.0111 21.8306L18.6083 22.0722C18.0444 22.3944 17.4805 22.6361 16.9166 22.7972L16.5139 22.8778L15.6277 25.7778H13.3722L12.4861 22.8778L12.0833 22.7972L10.3916 22.0722L9.98886 21.8306L7.33053 23.2806L5.71942 21.6694L7.16942 19.0111L6.92775 18.6083C6.60553 18.0444 6.36386 17.4806 6.20275 16.9167L6.12219 16.5139L3.2222 15.6278V13.3722L5.96108 12.5667L6.12219 12.1639C6.28331 11.5194 6.52497 10.9556 6.84719 10.3917L7.08886 9.98889L5.71942 7.33056L7.33053 5.71945L9.90831 7.16945L10.3111 6.92778C10.875 6.60556 11.4389 6.36389 12.0833 6.20278L12.4861 6.04167L13.3722 3.22223H15.6277L16.5139 6.04167L16.9166 6.20278C17.4805 6.36389 18.0444 6.60556 18.6083 6.92778L19.0111 7.16945L21.6694 5.71945L23.2805 7.33056L21.8305 9.98889L22.0722 10.3917C22.3944 10.9556 22.6361 11.5194 22.7972 12.0833L22.8778 12.4861L25.7778 13.3722V15.6278Z" fill="white"/>
</g>
<defs>
<clipPath id="clip0_1_331">
<rect width="29" height="29" fill="white"/>
</clipPath>
</defs>
</svg>
